PathFileType	4	(X/Y/Z)	C:/Users/opensim2020/Desktop/walking_exp_matlab/subject06_walking18_straight_02.trc																																																																																																																																											
DataRate	CameraRate	NumFrames	NumMarkers	Units	OrigDataRate	OrigDataStartFrame	OrigNumFrames																																																																																																																																							
100	100	6	47	mm	100	2292	326																																																																																																																																							
Frame#	Time	LFHD			RFHD			LBHD			RBHD			C7			T10			CLAV			STRN			RBAK			LSHO			LUPA			LELB			LFRM			LWRA			LWRB			LFIN			RSHO			RUPA			RELB			RFRM			RWRA			RWRB			RFIN			LASI			RASI			LPSI			RPSI			LTHI			LKNE			LTIB			LANK			LHEE			LTOE			RTHI			RKNE			RTIB			RANK			RHEE			RTOE			*39			*40			*41			*42			*43			*44			*45			*46		
		X1	Y1	Z1	X2	Y2	Z2	X3	Y3	Z3	X4	Y4	Z4	X5	Y5	Z5	X6	Y6	Z6	X7	Y7	Z7	X8	Y8	Z8	X9	Y9	Z9	X10	Y10	Z10	X11	Y11	Z11	X12	Y12	Z12	X13	Y13	Z13	X14	Y14	Z14	X15	Y15	Z15	X16	Y16	Z16	X17	Y17	Z17	X18	Y18	Z18	X19	Y19	Z19	X20	Y20	Z20	X21	Y21	Z21	X22	Y22	Z22	X23	Y23	Z23	X24	Y24	Z24	X25	Y25	Z25	X26	Y26	Z26	X27	Y27	Z27	X28	Y28	Z28	X29	Y29	Z29	X30	Y30	Z30	X31	Y31	Z31	X32	Y32	Z32	X33	Y33	Z33	X34	Y34	Z34	X35	Y35	Z35	X36	Y36	Z36	X37	Y37	Z37	X38	Y38	Z38	X39	Y39	Z39	X40	Y40	Z40	X41	Y41	Z41	X42	Y42	Z42	X43	Y43	Z43	X44	Y44	Z44	X45	Y45	Z45	X46	Y46	Z46	X47	Y47	Z47
																																																																																																																																														
41	0.4	-956.18176	1654.5166	974.18268	-960.46899	1645.13257	1106.29956	-1087.62891	1594.71545	970.04559	-1089.83704	1590.49866	1099.65332	-1085.72766	1437.73047	1021.63507	-1105.12622	1107.27722	1023.4184	-970.68683	1365.64844	1035.26074	-925.25702	1190.25818	1029.42676	-1159.41296	1259.60901	1088.2229	-1008.43005	1396.52356	867.69775	-974.078	1195.97131	796.49567	-952.72211	1084.08582	786.54236	-863.92688	961.87726	789.45563	-765.48523	898.95221	856.76581	-808.20288	859.57599	816.02795	-733.67108	811.07788	834.23553	-1041.06042	1391.32605	1189.6106	-1097.58521	1194.47229	1268.40637	-1096.89429	1073.67041	1285.30762	-1086.25854	954.71954	1307.87402	-1021.17706	815.13635	1293.14612	-1083.1864	817.38806	1320.97693	-1047.98328	741.22559	1332.4585	-926.53925	942.22662	927.42505	-933.57605	959.09631	1148.61987	-1083.50171	977.51367	949.42487	-1085.16565	984.36609	1118.44641	-1049.27258	634.49402	882.34686	-1091.33679	475.08438	904.89459	-1228.19861	254.97028	909.60095	-1306.77209	100.20119	951.67743	-1353.91125	101.10298	993.19757	-1179.52246	33.4199	966.7536	-940.94702	632.70142	1214.36804	-907.87524	511.22046	1187.66248	-894.29156	250.46306	1190.68994	-866.36621	66.66025	1148.09949	-901.81903	40.94545	1104.92676	-705.85547	33.40656	1138.35278	-1060.02747	1689.29907	1029.30908	NaN	NaN	NaN	NaN	NaN	NaN	NaN	NaN	NaN	NaN	NaN	NaN	NaN	NaN	NaN	NaN	NaN	NaN	NaN	NaN	NaN
42	0.41	-950.53992	1655.68079	976.49445	-954.66949	1646.03833	1108.62732	-1081.8313	1595.58752	972.36835	-1083.9071	1591.08655	1101.94824	-1079.4303	1438.5863	1023.61591	-1098.41711	1108.18176	1024.85608	-964.27118	1366.65393	1037.04431	-918.54761	1191.2843	1030.76917	-1152.73059	1260.25781	1090.30103	-1002.33984	1397.5166	869.39966	-968.19623	1196.81128	798.41248	-947.1701	1084.9624	788.59369	-858.26208	962.62946	791.26349	-759.67487	899.69794	858.13977	-802.66449	860.16992	817.51703	-727.96405	811.89728	835.45764	-1034.29272	1391.98071	1191.52734	-1090.43604	1194.99658	1270.37891	-1089.49268	1074.12415	1287.15344	-1078.30383	955.17291	1309.48975	-1012.53986	815.93439	1294.09827	-1074.55566	817.8053	1322.2959	-1039.01489	741.89008	1333.573	-920.20422	942.95349	928.4826	-926.40558	960.29095	1149.77588	-1076.97693	978.31152	950.43573	-1078.15771	985.72162	1119.45972	-1042.77332	634.98718	883.48688	-1084.29077	475.51874	906.07288	-1223.85498	257.24905	910.12134	-1304.59595	103.39111	951.40356	-1351.74451	105.09361	992.88629	-1179.22766	33.26654	966.96625	-936.19849	634.05585	1214.40039	-903.38977	511.87314	1188.4823	-892.52448	250.51373	1191.50696	-866.21771	66.70254	1148.57471	-901.9563	40.81391	1105.28223	-705.97046	33.40588	1138.17773	-1054.34302	1690.10938	1031.75842	NaN	NaN	NaN	NaN	NaN	NaN	NaN	NaN	NaN	NaN	NaN	NaN	NaN	NaN	NaN	NaN	NaN	NaN	NaN	NaN	NaN
43	0.42	-944.85162	1657.05811	978.8028	-948.86395	1647.08875	1110.91003	-1076.00146	1596.59705	974.66217	-1077.62134	1591.7771	1103.92065	-1073.22119	1439.57385	1025.56274	-1091.74133	1109.28027	1026.30249	-957.78119	1367.75623	1038.63464	-912.05969	1192.42517	1032.17175	-1146.10632	1261.11609	1092.23987	-996.3244	1398.68921	871.14722	-962.38263	1197.90601	800.3255	-941.35474	1086.04773	790.58533	-852.76642	963.50482	793.01184	-754.12207	900.41345	859.51404	-797.34796	860.92621	819.16827	-722.49011	812.67908	836.57251	-1027.56885	1392.7876	1193.33691	-1083.10193	1195.66431	1272.30005	-1081.82471	1074.73999	1288.93103	-1070.11121	955.79114	1311.07813	-1003.78979	816.64264	1295.10449	-1065.8833	818.57123	1323.75073	-1029.9054	742.66858	1334.64844	-913.86151	943.94537	929.67474	-919.4563	961.73242	1150.82703	-1070.48303	979.29651	951.42358	-1071.18591	987.16003	1120.43323	-1035.95386	635.55383	884.56665	-1076.69446	475.99179	907.22595	-1219.22192	259.69742	910.71667	-1302.11792	106.84768	950.72009	-1349.19421	109.45708	992.65552	-1178.57471	33.51173	966.8396	-930.35675	635.56909	1214.77588	-898.7514	512.85217	1188.94604	-891.96429	250.67137	1192.16016	-866.05762	66.59441	1149.40039	-902.02142	40.64587	1105.75464	-706.05402	33.4043	1138.45557	-1048.75671	1691.02441	1034.24963	NaN	NaN	NaN	NaN	NaN	NaN	NaN	NaN	NaN	NaN	NaN	NaN	NaN	NaN	NaN	NaN	NaN	NaN	NaN	NaN	NaN
44	0.43	-939.17633	1658.59595	981.24481	-943.08795	1648.27539	1113.29553	-1070.17236	1597.78687	976.96722	-1071.77258	1592.56873	1106.35535	-1067.01917	1440.67773	1027.49255	-1085.14087	1110.51392	1027.73376	-954.00128	1368.69946	1039.67297	-905.77368	1193.67566	1033.49414	-1139.56226	1262.16162	1093.98242	-990.35382	1400.09058	872.90576	-956.53235	1199.19202	802.30505	-935.41986	1087.31506	792.52167	-847.39545	964.55957	794.7486	-748.83514	901.14813	860.84332	-792.33032	861.82642	820.8952	-717.39355	813.53345	837.59924	-1020.85608	1393.73804	1195.05005	-1075.66284	1196.48975	1274.18994	-1073.95483	1075.51917	1290.64136	-1061.7533	956.57788	1312.60339	-995.1936	817.72198	1296.07568	-1056.95593	819.27747	1325.00452	-1020.56482	743.67755	1335.74402	-907.59637	945.16656	930.86206	-912.67255	963.19379	1151.79688	-1064.07019	980.48828	952.47076	-1064.32678	988.6828	1121.44299	-1029.00635	636.17755	885.64618	-1068.69385	476.48264	908.51697	-1214.1947	262.32251	911.41034	-1299.33301	110.76118	950.95026	-1346.4325	114.14178	992.5177	-1178.04224	33.63196	967.05078	-925.89801	636.75018	1214.66052	-894.78931	513.89349	1189.70435	-891.17145	250.99684	1193.26831	-866.3064	66.4245	1150.02209	-902.22327	40.43926	1106.28577	-706.28107	33.50178	1138.83313	-1043.16907	1692.11902	1036.79651	NaN	NaN	NaN	NaN	NaN	NaN	NaN	NaN	NaN	NaN	NaN	NaN	NaN	NaN	NaN	NaN	NaN	NaN	NaN	NaN	NaN
45	0.44	-933.56213	1660.30164	983.62268	-937.26929	1649.51978	1115.62708	-1064.35632	1599.18018	979.30005	-1066.03369	1593.5188	1108.80298	-1060.7699	1441.96118	1029.4126	-1078.7085	1111.96008	1029.20471	-947.65686	1370.099	1041.33435	-899.28339	1195.1499	1034.79651	-1132.99561	1263.37976	1095.66772	-984.39777	1401.66333	874.68878	-950.65533	1200.73145	804.2132	-929.88354	1088.94434	794.70691	-842.15778	965.72412	796.41382	-743.54926	901.98425	861.95905	-787.50513	862.64917	822.38544	-712.43488	814.34235	838.5155	-1014.31812	1394.96265	1196.83313	-1068.1084	1197.42688	1275.94312	-1065.89319	1076.48706	1292.31238	-1053.20496	957.58423	1314.08545	-986.38416	818.99994	1296.94409	-1047.98535	820.33685	1326.40161	-1011.1347	744.78204	1336.71765	-901.45483	946.59692	932.00348	-905.9483	964.73096	1152.65588	-1057.7511	981.79175	953.58411	-1057.5824	990.28149	1122.5448	-1021.73468	636.85596	886.76111	-1060.11353	476.93039	909.90375	-1208.82385	265.09692	912.22632	-1296.49548	114.64367	950.90222	-1343.26282	119.08488	992.69867	-1177.44971	33.85353	967.40405	-920.32141	637.9873	1215.13184	-891.56787	514.75519	1190.79651	-890.56909	251.22318	1194.28979	-866.66699	66.33192	1150.771	-902.56085	40.24454	1106.83582	-706.61017	33.74627	1139.06555	-1037.51978	1693.42688	1039.36377	NaN	NaN	NaN	NaN	NaN	NaN	NaN	NaN	NaN	NaN	NaN	NaN	NaN	NaN	NaN	NaN	NaN	NaN	NaN	NaN	NaN
46	0.45	-927.79688	1661.97314	986.05945	-931.45648	1650.76465	1118.01355	-1058.49365	1600.67932	981.64453	-1059.92444	1594.59888	1110.85095	-1054.54211	1443.36377	1031.38464	-1072.35461	1113.4906	1030.69031	-941.50055	1371.52979	1042.91785	-892.77576	1196.6333	1036.08606	-1126.43677	1264.77368	1097.40039	-978.52759	1403.33276	876.48407	-944.99603	1202.46729	806.14203	-924.28979	1090.6521	796.77478	-837.19562	966.99176	798.0517	-738.46478	902.81287	863.00208	-782.79279	863.5918	823.74207	-707.82245	815.09137	839.41418	-1007.72791	1396.26965	1198.50378	-1060.62488	1198.58337	1277.75195	-1057.87549	1077.55164	1293.82288	-1044.51953	958.73309	1315.48767	-977.34357	820.43225	1297.76978	-1038.59314	821.43884	1327.60986	-1001.6958	746.02673	1337.58228	-895.35364	948.22211	933.11035	-899.23608	966.10919	1153.5625	-1051.56201	983.22504	954.80634	-1050.80322	991.85309	1123.65967	-1014.13635	637.44751	887.88049	-1051	477.22488	911.25818	-1203.07446	267.92548	913.13043	-1293.31128	118.88695	950.98193	-1339.48608	124.05516	992.86469	-1176.82361	34.09894	967.79803	-915.03754	639.19464	1215.81946	-888.81573	515.49994	1192.08875	-890.06476	251.51048	1195.32813	-867.11804	66.2773	1151.49878	-902.90729	40.05834	1107.33118	-706.95532	33.99057	1139.20276	-1031.84827	1694.88037	1042.28796	NaN	NaN	NaN	NaN	NaN	NaN	NaN	NaN	NaN	NaN	NaN	NaN	NaN	NaN	NaN	NaN	NaN	NaN	NaN	NaN	NaN
